
<svg version="1.1" id="" xmlns="http://www.w3.org/2000/svg" xmlns:xlink="http://www.w3.org/1999/xlink" x="0px" y="0px"
	 viewBox="0 0 281.8 57.6" style="enable-background:new 0 0 281.8 57.6;" xml:space="preserve">
<style type="text/css">
	.st0{fill:url(#SVGID_1_);}
	.st1{fill:url(#SVGID_2_);}
	.st2{fill:url(#SVGID_3_);}
	.st3{fill:#222220;}
</style>
			<linearGradient id="SVGID_1_" gradientUnits="userSpaceOnUse" x1="80.8554" y1="70.8696" x2="51.6324" y2="25.8701" gradientTransform="matrix(1 0 0 -1 0 88)">
			<stop  offset="0" style="stop-color:#1E2759"/>
			<stop  offset="0.44" style="stop-color:#264A91"/>
			<stop  offset="1" style="stop-color:#99CDF2"/>
		</linearGradient>
		<path class="st0" d="M42.3,46.7l0.3-0.4c7.9,9.7,21,7.1,26.1-2.1c5.5-10,4.1-23.9,0.7-31c5.2-1.9,11.4,0,14.6,5.5
			c4.5,7.8,2.8,23.4-7,32.8C64.3,63.4,45.6,58.6,42.3,46.7z"/>
		
			<linearGradient id="SVGID_2_" gradientUnits="userSpaceOnUse" x1="16.5034" y1="27.9926" x2="74.0503" y2="87.5842" gradientTransform="matrix(1 0 0 -1 0 88)">
			<stop  offset="0" style="stop-color:#1E2759"/>
			<stop  offset="0.38" style="stop-color:#264A91"/>
			<stop  offset="1" style="stop-color:#99CDF2"/>
		</linearGradient>
		<path class="st1" d="M8.4,49.6c3.9,4.8,9.8,8.6,15.8,8.3c9-0.4,14.5-7.6,19.5-15.9c5.3-9,10.4-20,18.4-27.5
			c6.2-5.7,13.7-6.6,19.4-3c-5-11.9-19.4-16.2-30.7-3.8C43.8,15.4,38,27.2,33,35.1c-3.5,5.4-6.8,9.1-9.7,11.5
			C18.4,50.4,13,51,8.4,49.6z"/>
		
			<linearGradient id="SVGID_3_" gradientUnits="userSpaceOnUse" x1="23.4582" y1="66.1268" x2="3.1076" y2="45.0532" gradientTransform="matrix(1 0 0 -1 0 88)">
			<stop  offset="0" style="stop-color:#1E2759"/>
			<stop  offset="0.37" style="stop-color:#264A91"/>
			<stop  offset="1" style="stop-color:#99CDF2"/>
		</linearGradient>
		<path class="st2" d="M12.6,47.3c-10.2-7.2-4.4-22,7.3-21.6c-0.5,1.5-1.5,3.5-2.3,4.8l0.1,0.2c3.1-2,10.2-4.5,17.1-0.6
			C32.6,20.2,24.4,13.8,21,12.3c0.5,1.1,0.6,3,0.5,4C8.9,13.4-3.1,24.3,1.8,38C3.4,43.1,7.6,47.8,12.6,47.3z"/>

		<path class="st3" d="M89.4,2h0.9v6.6l4-6.6h0.9v8.3h-0.9V3.7l-4,6.6h-0.9V2L89.4,2z M96.9,10.3V2h0.9v3.5h4V2h0.9v8.3h-0.7v-4h-4
			v4H96.9L96.9,10.3z M107.6,3V1.8h0.9V3c0.9,0,1.7,0.5,2.4,0.9c0.5,0.5,0.9,1.4,0.9,2.1c0,0.9-0.2,1.7-0.7,2.1
			c-0.5,0.7-1.4,0.9-2.4,0.9v1.2h-0.9V9.3c-0.9,0-1.7-0.2-2.4-0.9c-0.7-0.5-0.9-1.4-0.9-2.1c0-0.9,0.2-1.7,0.9-2.1
			C105.9,3.5,106.6,3,107.6,3L107.6,3z M108.5,3.9v4.2c0.7,0,1.2-0.2,1.7-0.7c0.5-0.5,0.5-0.9,0.5-1.7s-0.2-1.2-0.5-1.7
			C109.7,4.2,109.2,3.9,108.5,3.9L108.5,3.9z M107.6,3.9c-0.7,0-1.2,0.2-1.7,0.7c-0.5,0.5-0.5,0.9-0.5,1.7s0.2,1.2,0.5,1.7
			c0.5,0.5,0.9,0.5,1.7,0.7V3.9L107.6,3.9z M112.7,6.3c0-1.4,0.2-2.4,0.9-3.3c0.7-0.7,1.7-1.2,2.6-1.2c0.7,0,1.4,0.2,1.9,0.5
			c0.5,0.5,0.9,0.9,1.4,1.7c0.2,0.7,0.5,1.4,0.5,2.1c0,0.9-0.2,1.7-0.5,2.4c-0.2,0.7-0.7,1.2-1.4,1.4c-0.5,0.2-1.2,0.5-1.9,0.5
			c-0.7,0-1.4-0.2-1.9-0.5c-0.5-0.5-0.9-0.9-1.2-1.7C112.7,7.7,112.7,7,112.7,6.3L112.7,6.3z M113.7,6.3c0,0.9,0.2,1.9,0.7,2.4
			c0.5,0.5,1.2,0.9,1.9,0.9c0.7,0,1.4-0.2,1.9-0.9c0.5-0.5,0.7-1.4,0.7-2.6c0-0.7,0-1.2-0.2-1.9c-0.2-0.5-0.5-0.9-0.9-1.2
			c-0.5-0.2-0.9-0.5-1.4-0.5c-0.7,0-1.4,0.2-1.9,0.7C113.9,4.2,113.7,5.1,113.7,6.3L113.7,6.3z M121.2,10.3V2h2.8c0.5,0,0.9,0,1.2,0
			c0.5,0,0.7,0.2,0.9,0.5c0.2,0.2,0.5,0.5,0.7,0.7c0.2,0.2,0.2,0.7,0.2,1.2c0,0.7-0.2,1.4-0.7,1.9c-0.5,0.5-1.2,0.7-2.4,0.7h-1.9
			v3.3H121.2L121.2,10.3z M122.4,6h1.9c0.7,0,1.2-0.2,1.4-0.5c0.2-0.2,0.5-0.7,0.5-1.2c0-0.2,0-0.7-0.2-0.9
			c-0.2-0.2-0.5-0.5-0.7-0.5c-0.2,0-0.5,0-0.9,0h-1.9L122.4,6L122.4,6z M128.3,10.3V2h1.7l1.9,5.9c0.2,0.5,0.2,0.9,0.5,1.2
			c0-0.2,0.2-0.7,0.5-1.4l1.9-5.9h0.9v8.3h-0.9V3l-2.1,7.1h-0.9L129.5,3v7.1h-1.2V10.3z M136.5,10.3l3.1-8.3h1.2l3.1,8.3h-1.2
			l-0.9-2.6h-3.3l-0.9,2.6H136.5L136.5,10.3z M138.7,7h2.6l-0.7-2.4c-0.2-0.7-0.5-1.2-0.5-1.7c0,0.5-0.2,1.2-0.5,1.7L138.7,7
			L138.7,7z M144.6,2h0.9v7.3h4V2h0.9v7.3h0.7v3.3h-0.9v-2.4h-5.9V2H144.6z M152.6,2h0.9v6.6l4-6.6h0.9v8.3h-0.9V3.7l-4,6.6h-0.9V2
			L152.6,2z M166.2,10.3V2h-3.3c-0.7,0-1.2,0-1.7,0.2s-0.7,0.5-0.9,0.7c-0.2,0.5-0.2,0.7-0.2,1.2c0,0.7,0.2,1.2,0.5,1.4
			c0.2,0.5,0.9,0.7,1.7,0.7c-0.2,0.2-0.5,0.2-0.7,0.5c-0.2,0.2-0.5,0.7-0.9,1.2l-1.4,2.4h1.2l0.9-1.7c0.2-0.5,0.5-0.9,0.7-1.2
			c0.2-0.2,0.5-0.5,0.5-0.5c0.2,0,0.2-0.2,0.5-0.2c0.2,0,0.2,0,0.5,0h1.2v3.8h1.7V10.3z M165.3,5.8h-2.1c-0.5,0-0.9,0-1.2-0.2
			c-0.2,0-0.5-0.2-0.7-0.5c-0.2-0.2-0.2-0.5-0.2-0.7c0-0.5,0.2-0.7,0.5-0.9c0.2-0.2,0.7-0.5,1.2-0.5h2.4v2.8H165.3z M174,2h0.9v6.6
			l4-6.6h0.9v8.3H179V3.7l-4,6.6H174V2L174,2z M182.3,2h4.7v7.3h0.7v2.8h-0.9v-1.9h-5.2v1.9h-0.9V9.3h0.7c0.7-0.9,0.9-3.1,0.9-6.1V2
			L182.3,2z M186,3h-2.6v0.5c0,0.7,0,1.7-0.2,2.8c0,1.2-0.2,2.1-0.7,3.1h3.5L186,3L186,3z M188.9,10.3V2h5.7V3h-4.5v2.6h4.2v0.9
			h-4.2v2.8h4.7v0.9H188.9L188.9,10.3z M196.2,2h0.9v6.6l4-6.6h0.9v8.3h-0.9V3.7l-4,6.6h-0.9V2L196.2,2z M211.7,10.3V3h-2.6V2h6.1V3
			h-2.6v7.3H211.7L211.7,10.3z M216.5,10.3V2h5.7V3h-4.5v2.6h4.2v0.9h-4.2v2.8h4.7v0.9H216.5L216.5,10.3z M222.8,10.3l3.1-4.2
			l-2.6-4h1.2l1.4,2.1c0.2,0.5,0.5,0.7,0.7,0.9c0.2-0.2,0.5-0.7,0.7-0.9l1.7-2.1h1.2l-2.6,4l2.8,4.5h-1.2l-1.9-3.1
			c0-0.2-0.2-0.5-0.2-0.5c-0.2,0.2-0.2,0.5-0.5,0.7l-1.9,2.8h-1.9V10.3z M230.8,10.3V2h0.9v3.5h4V2h0.9v8.3h-0.9v-4h-4v4H230.8
			L230.8,10.3z M238.1,6.3c0-1.4,0.2-2.4,0.9-3.3c0.7-0.7,1.7-1.2,2.6-1.2c0.7,0,1.4,0.2,1.9,0.5c0.5,0.5,0.9,0.9,1.4,1.7
			c0.2,0.7,0.5,1.4,0.5,2.1c0,0.9-0.2,1.7-0.5,2.4c-0.2,0.7-0.7,1.2-1.4,1.4c-0.5,0.2-1.2,0.5-1.9,0.5c-0.7,0-1.4-0.2-1.9-0.5
			c-0.5-0.5-0.9-0.9-1.4-1.7C238.4,7.7,238.1,7,238.1,6.3L238.1,6.3z M239.3,6.3c0,0.9,0.2,1.9,0.7,2.4c0.5,0.5,1.2,0.9,1.9,0.9
			c0.7,0,1.4-0.2,1.9-0.9c0.5-0.5,0.7-1.4,0.7-2.6c0-0.7,0-1.2-0.2-1.9c-0.2-0.5-0.5-0.9-0.9-1.2s-0.9-0.5-1.4-0.5
			c-0.7,0-1.4,0.2-1.9,0.7C239.6,4.2,239.3,5.1,239.3,6.3L239.3,6.3z M247.3,2h4.7v8.3h-0.9V3h-2.8v4.2c0,0.9,0,1.4,0,1.9
			c0,0.5-0.2,0.7-0.5,0.9c-0.2,0.2-0.5,0.2-0.9,0.2c-0.2,0-0.5,0-0.7-0.2l0.2-0.9c0.2,0,0.2,0,0.5,0c0.2,0,0.5,0,0.5-0.2
			s0.2-0.7,0.2-1.4V2H247.3z M253.5,6.3c0-1.4,0.2-2.4,0.9-3.3c0.7-0.7,1.7-1.2,2.6-1.2c0.7,0,1.4,0.2,1.9,0.5
			c0.5,0.5,0.9,0.9,1.4,1.7c0.2,0.7,0.5,1.4,0.5,2.1c0,0.9-0.2,1.7-0.5,2.4s-0.7,1.2-1.4,1.4c-0.5,0.2-1.2,0.5-1.9,0.5
			s-1.4-0.2-1.9-0.5c-0.5-0.5-0.9-0.9-1.4-1.7C253.7,7.7,253.5,7,253.5,6.3L253.5,6.3z M254.6,6.3c0,0.9,0.2,1.9,0.7,2.4
			c0.5,0.5,1.2,0.9,1.9,0.9c0.7,0,1.4-0.2,1.9-0.9c0.5-0.5,0.7-1.4,0.7-2.6c0-0.7,0-1.2-0.2-1.9c-0.2-0.5-0.5-0.9-0.9-1.2
			c-0.5-0.2-0.9-0.5-1.4-0.5c-0.7,0-1.4,0.2-1.9,0.7C254.9,4.2,254.6,5.1,254.6,6.3L254.6,6.3z M262.2,2h5V3h-4v7.3h-0.9V2L262.2,2z
			 M268.1,2h0.9v6.6l4-6.6h0.9v8.3H273V3.7l-4,6.6h-0.9V2L268.1,2z M275.6,2h0.9v6.6l4-6.6h1.2v8.3h-0.9V3.7l-4,6.6h-0.9V2H275.6z"
			/>
		<path class="st3" d="M207,4.6c0.7,0,1.4,0.5,1.4,1.4c0,0.7-0.7,1.2-1.4,1.2c-0.7,0-1.4-0.5-1.4-1.2C205.6,5.1,206.3,4.6,207,4.6z"
			/>
		<path class="st3" d="M170.5,4.6c0.7,0,1.4,0.5,1.4,1.4c0,0.7-0.7,1.2-1.4,1.2s-1.4-0.5-1.4-1.2C169.3,5.1,169.8,4.6,170.5,4.6z"/>

	<path class="st3" d="M97.9,43.1h5.9v8.7c0,1.2,0,2.1-0.2,2.8c-0.2,0.7-0.7,1.4-1.4,2.1s-1.9,0.9-3.5,0.9h-4c-0.9,0-1.9,0-2.6-0.2
		c-0.7-0.2-1.4-0.7-1.9-1.7c-0.5-0.9-0.7-2.1-0.7-4V23c0-1.2,0-2.1,0.2-3.1c0.2-0.7,0.7-1.4,1.4-2.1c0.7-0.5,1.9-0.9,3.5-0.9h4
		c1.7,0,2.6,0.2,3.5,0.9c0.7,0.5,1.2,1.2,1.4,2.1c0.2,0.7,0.2,1.9,0.2,2.8v7.8h-5.9v-9.2c0-0.5-0.2-0.7-0.5-0.9
		c-0.2-0.2-0.7-0.5-0.9-0.5c-0.2,0-0.7,0.2-0.9,0.5c-0.2,0.2-0.5,0.5-0.5,0.9v31.4c0,0.2,0.2,0.7,0.5,0.9c0.2,0.2,0.5,0.5,0.9,0.5
		c0.5,0,0.7,0,0.9-0.2c0.2-0.5,0.5-0.7,0.5-1.2V43.1L97.9,43.1z M116.5,51.8V23c0-4.2,1.7-6.4,5.2-6.4h4c3.5,0,5.2,2.1,5.2,6.4v28.8
		c0,1.2,0,2.1-0.2,3.1c-0.2,0.7-0.7,1.4-1.4,2.1s-1.9,0.9-3.5,0.9h-4c-1.2,0-1.9,0-2.6-0.5c-0.7-0.2-1.4-0.7-1.9-1.7
		C116.7,54.8,116.5,53.4,116.5,51.8L116.5,51.8z M122.4,21.6v31.1c0,0.2,0.2,0.7,0.5,0.9c0.2,0.2,0.5,0.5,0.9,0.5
		c0.9,0,1.4-0.5,1.4-1.4V21.6c0-0.5-0.2-0.7-0.5-0.9s-0.5-0.5-0.9-0.5c-0.2,0-0.7,0.2-0.9,0.5C122.4,20.9,122.4,21.4,122.4,21.6
		L122.4,21.6z M152.6,57v-4.2h-2.8c-0.9,0-1.7-0.2-2.4-0.2c-0.7-0.2-1.4-0.7-1.9-1.7c-0.5-0.9-0.7-2.1-0.7-3.8V24.7
		c0-2.4,0.5-4,1.4-4.7c0.9-0.7,2.1-1.2,3.5-1.2h2.6v-2.4h5.9V19h2.8c3.3,0,5,1.9,5,5.7v22.4c0,3.8-1.7,5.7-5,5.7h-2.8V57L152.6,57
		L152.6,57z M152.6,49.2V22.8c-1.4,0-1.9,0.7-1.9,2.1v22.2C150.5,48.5,151.2,49.2,152.6,49.2L152.6,49.2z M158.2,22.8v26.6
		c1.4,0,1.9-0.7,1.9-2.1V25.1c0-0.7-0.2-1.2-0.5-1.7S158.9,22.8,158.2,22.8L158.2,22.8z M180.6,57V20.9h-4.5v-3.8h14.6v3.8h-4.5V57
		L180.6,57L180.6,57z M201.4,57V17.1h5.7v17.2l2.8-17.2h5.9L212.2,36l4.2,21h-5.7L207,38.1V57L201.4,57L201.4,57z M227.8,51.8V23
		c0-4.2,1.7-6.4,5.2-6.4h4c3.5,0,5.2,2.1,5.2,6.4v28.8c0,1.2,0,2.1-0.2,3.1c-0.2,0.7-0.7,1.4-1.4,2.1c-0.7,0.7-1.9,0.9-3.5,0.9h-4
		c-1.2,0-1.9,0-2.6-0.5c-0.7-0.2-1.4-0.7-1.9-1.7C228,54.8,227.8,53.4,227.8,51.8L227.8,51.8z M233.7,21.6v31.1
		c0,0.2,0.2,0.7,0.5,0.9c0.2,0.2,0.5,0.5,0.9,0.5c0.9,0,1.4-0.5,1.4-1.4V21.6c0-0.5-0.2-0.7-0.5-0.9s-0.5-0.5-0.9-0.5
		c-0.2,0-0.7,0.2-0.9,0.5C233.7,20.9,233.7,21.4,233.7,21.6L233.7,21.6z M256.1,57V17.1h8.5l4.2,26.9l4.7-26.9h8V57h-5.9V32.2
		L271.8,57h-6.1l-4-24.8V57H256.1z"/>

</svg>
