<?xml version="1.0" encoding="utf-8"?>
<svg version="1.1" id="" xmlns="http://www.w3.org/2000/svg" xmlns:xlink="http://www.w3.org/1999/xlink" x="0px" y="0px"
	 viewBox="0 0 87 86" style="enable-background:new 0 0 87 86;" xml:space="preserve">
<style type="text/css">
	.st0{fill-rule:evenodd;clip-rule:evenodd;fill:url(#SVGID_1_);}
	.st1{fill-rule:evenodd;clip-rule:evenodd;fill:url(#SVGID_2_);}
	.st2{fill-rule:evenodd;clip-rule:evenodd;fill:url(#SVGID_3_);}
	.st3{fill-rule:evenodd;clip-rule:evenodd;fill:#222220;}
</style>
		<linearGradient id="SVGID_1_" gradientUnits="userSpaceOnUse" x1="80.7967" y1="17.0923" x2="51.5737" y2="62.0918">
			<stop  offset="0" style="stop-color:#1E2759"/>
			<stop  offset="0.44" style="stop-color:#264A91"/>
			<stop  offset="1" style="stop-color:#99CDF2"/>
		</linearGradient>
		<path class="st0" d="M42.3,46.7l0.3-0.4c7.9,9.7,21,7.1,26.1-2.1c5.5-10,4.1-23.9,0.7-31c5.2-1.9,11.4,0,14.6,5.5
			c4.5,7.8,2.8,23.4-7,32.8C64.3,63.4,45.6,58.6,42.3,46.7z"/>
		<linearGradient id="SVGID_2_" gradientUnits="userSpaceOnUse" x1="16.4881" y1="59.9926" x2="74.035" y2="0.401">
			<stop  offset="0" style="stop-color:#1E2759"/>
			<stop  offset="0.38" style="stop-color:#264A91"/>
			<stop  offset="1" style="stop-color:#99CDF2"/>
		</linearGradient>
		<path class="st1" d="M8.4,49.6c3.9,4.8,9.8,8.6,15.8,8.3c9-0.4,14.5-7.6,19.5-15.9C49,33,54.1,22,62.1,14.5
			c6.2-5.7,13.7-6.6,19.4-3c-5-11.9-19.4-16.2-30.7-3.8c-7,7.7-12.8,19.5-17.8,27.4c-3.5,5.4-6.8,9.1-9.7,11.5
			C18.4,50.4,13,51,8.4,49.6z"/>
		<linearGradient id="SVGID_3_" gradientUnits="userSpaceOnUse" x1="23.4528" y1="21.868" x2="3.1022" y2="42.9416">
			<stop  offset="0" style="stop-color:#1E2759"/>
			<stop  offset="0.37" style="stop-color:#264A91"/>
			<stop  offset="1" style="stop-color:#99CDF2"/>
		</linearGradient>
		<path class="st2" d="M12.6,47.3c-10.2-7.2-4.4-22,7.3-21.6c-0.5,1.5-1.5,3.5-2.3,4.8l0.1,0.2c3.1-2,10.2-4.5,17.1-0.6
			c-2.2-9.9-10.4-16.3-13.8-17.8c0.5,1.1,0.6,3,0.5,4c-12.6-2.9-24.6,8-19.7,21.7C3.4,43.1,7.6,47.8,12.6,47.3z"/>
		<path class="st3" d="M3.4,61.9h0.4v2.8l1.7-2.8h0.4v3.5H5.5v-2.8l-1.7,2.8H3.4V61.9L3.4,61.9z M6.6,65.4v-3.5h0.4v1.5h1.7v-1.5
			h0.4v3.5H8.8v-1.7H7.1v1.7H6.6L6.6,65.4z M11.1,62.3v-0.5h0.4v0.5c0.4,0,0.7,0.2,1,0.4c0.2,0.2,0.4,0.6,0.4,0.9
			c0,0.4-0.1,0.7-0.3,0.9c-0.2,0.3-0.6,0.4-1,0.4v0.5h-0.4V65c-0.4,0-0.7-0.1-1-0.4c-0.3-0.2-0.4-0.6-0.4-0.9c0-0.4,0.1-0.7,0.4-0.9
			C10.4,62.5,10.7,62.3,11.1,62.3L11.1,62.3z M11.5,62.7v1.8c0.3,0,0.5-0.1,0.7-0.3c0.2-0.2,0.2-0.4,0.2-0.7c0-0.3-0.1-0.5-0.2-0.7
			C12,62.8,11.8,62.7,11.5,62.7L11.5,62.7z M11.1,62.7c-0.3,0-0.5,0.1-0.7,0.3c-0.2,0.2-0.2,0.4-0.2,0.7c0,0.3,0.1,0.5,0.2,0.7
			c0.2,0.2,0.4,0.2,0.7,0.3V62.7L11.1,62.7z M13.3,63.7c0-0.6,0.1-1,0.4-1.4c0.3-0.3,0.7-0.5,1.1-0.5c0.3,0,0.6,0.1,0.8,0.2
			c0.2,0.2,0.4,0.4,0.6,0.7c0.1,0.3,0.2,0.6,0.2,0.9c0,0.4-0.1,0.7-0.2,1c-0.1,0.3-0.3,0.5-0.6,0.6c-0.2,0.1-0.5,0.2-0.8,0.2
			c-0.3,0-0.6-0.1-0.8-0.2c-0.2-0.2-0.4-0.4-0.5-0.7C13.3,64.3,13.3,64,13.3,63.7L13.3,63.7z M13.7,63.7c0,0.4,0.1,0.8,0.3,1
			c0.2,0.2,0.5,0.4,0.8,0.4c0.3,0,0.6-0.1,0.8-0.4c0.2-0.2,0.3-0.6,0.3-1.1c0-0.3,0-0.5-0.1-0.8c-0.1-0.2-0.2-0.4-0.4-0.5
			c-0.2-0.1-0.4-0.2-0.6-0.2c-0.3,0-0.6,0.1-0.8,0.3C13.8,62.8,13.7,63.2,13.7,63.7L13.7,63.7z M16.9,65.4v-3.5h1.2
			c0.2,0,0.4,0,0.5,0c0.2,0,0.3,0.1,0.4,0.2c0.1,0.1,0.2,0.2,0.3,0.3c0.1,0.1,0.1,0.3,0.1,0.5c0,0.3-0.1,0.6-0.3,0.8
			c-0.2,0.2-0.5,0.3-1,0.3h-0.8v1.4H16.9L16.9,65.4z M17.4,63.6h0.8c0.3,0,0.5-0.1,0.6-0.2c0.1-0.1,0.2-0.3,0.2-0.5
			c0-0.1,0-0.3-0.1-0.4c-0.1-0.1-0.2-0.2-0.3-0.2c-0.1,0-0.2,0-0.4,0h-0.8V63.6L17.4,63.6z M19.9,65.4v-3.5h0.7l0.8,2.5
			c0.1,0.2,0.1,0.4,0.2,0.5c0-0.1,0.1-0.3,0.2-0.6l0.8-2.5H23v3.5h-0.4v-3l-0.9,3h-0.4l-0.9-3v3H19.9L19.9,65.4z M23.4,65.4l1.3-3.5
			h0.5l1.3,3.5h-0.5l-0.4-1.1h-1.4l-0.4,1.1H23.4L23.4,65.4z M24.3,64h1.1l-0.3-1c-0.1-0.3-0.2-0.5-0.2-0.7c0,0.2-0.1,0.5-0.2,0.7
			L24.3,64L24.3,64z M26.8,61.9h0.4V65h1.7v-3.1h0.4V65h0.3v1.4h-0.4v-1h-2.5V61.9L26.8,61.9z M30.2,61.9h0.4v2.8l1.7-2.8h0.4v3.5
			h-0.4v-2.8l-1.7,2.8h-0.4V61.9L30.2,61.9z M36,65.4v-3.5h-1.4c-0.3,0-0.5,0-0.7,0.1c-0.2,0.1-0.3,0.2-0.4,0.3
			c-0.1,0.2-0.1,0.3-0.1,0.5c0,0.3,0.1,0.5,0.2,0.6c0.1,0.2,0.4,0.3,0.7,0.3c-0.1,0.1-0.2,0.1-0.3,0.2c-0.1,0.1-0.2,0.3-0.4,0.5
			l-0.6,1h0.5l0.4-0.7c0.1-0.2,0.2-0.4,0.3-0.5c0.1-0.1,0.2-0.2,0.2-0.2c0.1,0,0.1-0.1,0.2-0.1c0.1,0,0.1,0,0.2,0h0.5v1.6H36
			L36,65.4z M35.6,63.5h-0.9c-0.2,0-0.4,0-0.5-0.1c-0.1,0-0.2-0.1-0.3-0.2c-0.1-0.1-0.1-0.2-0.1-0.3c0-0.2,0.1-0.3,0.2-0.4
			c0.1-0.1,0.3-0.2,0.5-0.2h1V63.5L35.6,63.5z M39.3,61.9h0.4v2.8l1.7-2.8h0.4v3.5h-0.4v-2.8l-1.7,2.8h-0.4V61.9L39.3,61.9z
			 M42.8,61.9h2V65h0.3v1.2h-0.4v-0.8h-2.2v0.8h-0.4V65h0.3c0.3-0.4,0.4-1.3,0.4-2.6V61.9L42.8,61.9z M44.4,62.3h-1.1v0.2
			c0,0.3,0,0.7-0.1,1.2c0,0.5-0.1,0.9-0.3,1.3h1.5V62.3L44.4,62.3z M45.6,65.4v-3.5H48v0.4h-1.9v1.1h1.8v0.4h-1.8V65h2v0.4H45.6
			L45.6,65.4z M48.7,61.9h0.4v2.8l1.7-2.8h0.4v3.5h-0.4v-2.8l-1.7,2.8h-0.4V61.9L48.7,61.9z M55.3,65.4v-3.1h-1.1v-0.4h2.6v0.4h-1.1
			v3.1H55.3L55.3,65.4z M57.3,65.4v-3.5h2.4v0.4h-1.9v1.1h1.8v0.4h-1.8V65h2v0.4H57.3L57.3,65.4z M60,65.4l1.3-1.8l-1.1-1.7h0.5
			l0.6,0.9c0.1,0.2,0.2,0.3,0.3,0.4c0.1-0.1,0.2-0.3,0.3-0.4l0.7-0.9h0.5l-1.1,1.7l1.2,1.9h-0.5l-0.8-1.3c0-0.1-0.1-0.2-0.1-0.2
			c-0.1,0.1-0.1,0.2-0.2,0.3l-0.8,1.2H60L60,65.4z M63.4,65.4v-3.5h0.4v1.5h1.7v-1.5h0.4v3.5h-0.4v-1.7h-1.7v1.7H63.4L63.4,65.4z
			 M66.5,63.7c0-0.6,0.1-1,0.4-1.4c0.3-0.3,0.7-0.5,1.1-0.5c0.3,0,0.6,0.1,0.8,0.2c0.2,0.2,0.4,0.4,0.6,0.7c0.1,0.3,0.2,0.6,0.2,0.9
			c0,0.4-0.1,0.7-0.2,1c-0.1,0.3-0.3,0.5-0.6,0.6c-0.2,0.1-0.5,0.2-0.8,0.2c-0.3,0-0.6-0.1-0.8-0.2c-0.2-0.2-0.4-0.4-0.6-0.7
			C66.6,64.3,66.5,64,66.5,63.7L66.5,63.7z M67,63.7c0,0.4,0.1,0.8,0.3,1c0.2,0.2,0.5,0.4,0.8,0.4c0.3,0,0.6-0.1,0.8-0.4
			c0.2-0.2,0.3-0.6,0.3-1.1c0-0.3,0-0.5-0.1-0.8c-0.1-0.2-0.2-0.4-0.4-0.5c-0.2-0.1-0.4-0.2-0.6-0.2c-0.3,0-0.6,0.1-0.8,0.3
			C67.1,62.8,67,63.2,67,63.7L67,63.7z M70.4,61.9h2v3.5H72v-3.1h-1.2v1.8c0,0.4,0,0.6,0,0.8c0,0.2-0.1,0.3-0.2,0.4
			c-0.1,0.1-0.2,0.1-0.4,0.1c-0.1,0-0.2,0-0.3-0.1l0.1-0.4c0.1,0,0.1,0,0.2,0c0.1,0,0.2,0,0.2-0.1c0-0.1,0.1-0.3,0.1-0.6V61.9
			L70.4,61.9z M73,63.7c0-0.6,0.1-1,0.4-1.4c0.3-0.3,0.7-0.5,1.1-0.5c0.3,0,0.6,0.1,0.8,0.2c0.2,0.2,0.4,0.4,0.6,0.7
			c0.1,0.3,0.2,0.6,0.2,0.9c0,0.4-0.1,0.7-0.2,1c-0.1,0.3-0.3,0.5-0.6,0.6c-0.2,0.1-0.5,0.2-0.8,0.2c-0.3,0-0.6-0.1-0.8-0.2
			c-0.2-0.2-0.4-0.4-0.6-0.7C73.1,64.3,73,64,73,63.7L73,63.7z M73.5,63.7c0,0.4,0.1,0.8,0.3,1c0.2,0.2,0.5,0.4,0.8,0.4
			c0.3,0,0.6-0.1,0.8-0.4c0.2-0.2,0.3-0.6,0.3-1.1c0-0.3,0-0.5-0.1-0.8c-0.1-0.2-0.2-0.4-0.4-0.5c-0.2-0.1-0.4-0.2-0.6-0.2
			c-0.3,0-0.6,0.1-0.8,0.3C73.6,62.8,73.5,63.2,73.5,63.7L73.5,63.7z M76.7,61.9h2.1v0.4h-1.7v3.1h-0.4V61.9L76.7,61.9z M79.2,61.9
			h0.4v2.8l1.7-2.8h0.4v3.5h-0.4v-2.8l-1.7,2.8h-0.4V61.9L79.2,61.9z M82.4,61.9h0.4v2.8l1.7-2.8H85v3.5h-0.4v-2.8l-1.7,2.8h-0.4
			V61.9z"/>
		<path class="st3" d="M53.3,63c0.3,0,0.6,0.2,0.6,0.6c0,0.3-0.3,0.5-0.6,0.5c-0.3,0-0.6-0.2-0.6-0.5C52.7,63.2,53,63,53.3,63z"/>
		<path class="st3" d="M37.8,63c0.3,0,0.6,0.2,0.6,0.6c0,0.3-0.3,0.5-0.6,0.5c-0.3,0-0.6-0.2-0.6-0.5C37.3,63.2,37.5,63,37.8,63z"/>
	<path class="st3" d="M7,79.3h2.5V83c0,0.5,0,0.9-0.1,1.2c-0.1,0.3-0.3,0.6-0.6,0.9c-0.3,0.3-0.8,0.4-1.5,0.4H5.6
		c-0.4,0-0.8,0-1.1-0.1c-0.3-0.1-0.6-0.3-0.8-0.7c-0.2-0.4-0.3-0.9-0.3-1.7V70.8c0-0.5,0-0.9,0.1-1.3c0.1-0.3,0.3-0.6,0.6-0.9
		c0.3-0.2,0.8-0.4,1.5-0.4h1.7c0.7,0,1.1,0.1,1.5,0.4c0.3,0.2,0.5,0.5,0.6,0.9c0.1,0.3,0.1,0.8,0.1,1.2V74H7v-3.9
		c0-0.2-0.1-0.3-0.2-0.4c-0.1-0.1-0.3-0.2-0.4-0.2c-0.1,0-0.3,0.1-0.4,0.2c-0.1,0.1-0.2,0.2-0.2,0.4v13.3c0,0.1,0.1,0.3,0.2,0.4
		C6.1,83.9,6.2,84,6.4,84c0.2,0,0.3,0,0.4-0.1C6.9,83.7,7,83.6,7,83.4V79.3L7,79.3z M14.9,83V70.8c0-1.8,0.7-2.7,2.2-2.7h1.7
		c1.5,0,2.2,0.9,2.2,2.7V83c0,0.5,0,0.9-0.1,1.3c-0.1,0.3-0.3,0.6-0.6,0.9c-0.3,0.3-0.8,0.4-1.5,0.4h-1.7c-0.5,0-0.8,0-1.1-0.2
		c-0.3-0.1-0.6-0.3-0.8-0.7C15,84.3,14.9,83.7,14.9,83L14.9,83z M17.4,70.2v13.2c0,0.1,0.1,0.3,0.2,0.4c0.1,0.1,0.2,0.2,0.4,0.2
		c0.4,0,0.6-0.2,0.6-0.6V70.2c0-0.2-0.1-0.3-0.2-0.4c-0.1-0.1-0.2-0.2-0.4-0.2c-0.1,0-0.3,0.1-0.4,0.2
		C17.4,69.9,17.4,70.1,17.4,70.2L17.4,70.2z M30.2,85.2v-1.8H29c-0.4,0-0.7-0.1-1-0.1c-0.3-0.1-0.6-0.3-0.8-0.7
		c-0.2-0.4-0.3-0.9-0.3-1.6v-9.5c0-1,0.2-1.7,0.6-2c0.4-0.3,0.9-0.5,1.5-0.5h1.1V68h2.5v1.1h1.2c1.4,0,2.1,0.8,2.1,2.4V81
		c0,1.6-0.7,2.4-2.1,2.4h-1.2v1.8H30.2L30.2,85.2z M30.2,81.9V70.7c-0.6,0-0.8,0.3-0.8,0.9V81C29.3,81.6,29.6,81.9,30.2,81.9
		L30.2,81.9z M32.6,70.7v11.3c0.6,0,0.8-0.3,0.8-0.9v-9.4c0-0.3-0.1-0.5-0.2-0.7C33.1,70.8,32.9,70.7,32.6,70.7L32.6,70.7z
		 M42.1,85.2V69.9h-1.9v-1.6h6.2v1.6h-1.9v15.3H42.1L42.1,85.2z M50.9,85.2V68.3h2.4v7.3l1.2-7.3H57l-1.5,8l1.8,8.9h-2.4l-1.6-8v8
		H50.9L50.9,85.2z M62.1,83V70.8c0-1.8,0.7-2.7,2.2-2.7H66c1.5,0,2.2,0.9,2.2,2.7V83c0,0.5,0,0.9-0.1,1.3c-0.1,0.3-0.3,0.6-0.6,0.9
		c-0.3,0.3-0.8,0.4-1.5,0.4h-1.7c-0.5,0-0.8,0-1.1-0.2c-0.3-0.1-0.6-0.3-0.8-0.7C62.2,84.3,62.1,83.7,62.1,83L62.1,83z M64.6,70.2
		v13.2c0,0.1,0.1,0.3,0.2,0.4c0.1,0.1,0.2,0.2,0.4,0.2c0.4,0,0.6-0.2,0.6-0.6V70.2c0-0.2-0.1-0.3-0.2-0.4c-0.1-0.1-0.2-0.2-0.4-0.2
		c-0.1,0-0.3,0.1-0.4,0.2C64.6,69.9,64.6,70.1,64.6,70.2L64.6,70.2z M74.1,85.2V68.3h3.6l1.8,11.4l2-11.4h3.4v16.9h-2.5V74.7
		l-1.6,10.5h-2.6l-1.7-10.5v10.5H74.1z"/>
</svg>
