<svg xmlns="http://www.w3.org/2000/svg" viewBox="0 0 24.9 20"><path d="M.4 19.5V18c2.4-.8 4.3-2 5.6-3.7 1.3-1.7 2-3.5 2-5.3 0-.4-.1-.8-.3-1.1-.2-.3-.4-.4-.5-.4-.3 0-.8.2-1.7.7-.5.2-.9.3-1.4.3-1.1 0-2.1-.3-2.7-1-.7-.7-1-1.6-1-2.8 0-1.1.4-2.1 1.3-3C2.6.9 3.7.5 4.9.5c1.5 0 2.9.7 4.1 2 1.2 1.3 1.8 3.1 1.8 5.4 0 2.4-.8 4.7-2.5 6.7C6.7 16.7 4 18.3.4 19.5zm14 0V18c2.4-.8 4.3-2 5.6-3.7 1.3-1.7 2-3.5 2-5.3 0-.4-.1-.8-.3-1.1-.2-.2-.3-.3-.5-.3-.3 0-.8.2-1.7.7-.4.2-.9.3-1.3.3-1.1 0-2.1-.3-2.7-1-.7-.7-1-1.6-1-2.8 0-1.1.4-2.1 1.3-3 .9-.8 2-1.2 3.2-1.2 1.5 0 2.9.7 4.1 2 1.2 1.3 1.8 3.1 1.8 5.4 0 2.4-.8 4.7-2.5 6.7s-4.4 3.6-8 4.8z" fill="#f9c869"/></svg>