<?xml version="1.0" encoding="utf-8"?>
<!-- Generator: Adobe Illustrator 22.0.1, SVG Export Plug-In . SVG Version: 6.00 Build 0)  -->
<svg version="1.1" id="" xmlns="http://www.w3.org/2000/svg" xmlns:xlink="http://www.w3.org/1999/xlink" x="0px" y="0px"
	 viewBox="0 0 429 83.6" style="enable-background:new 0 0 429 83.6;" xml:space="preserve">
<g>
	<path d="M130.4,48.7H125v-6.9h-16.9v6.9h-5.5l-0.3-11.5h2.1c1.1-1,2-2.3,2.6-4.2c0.6-1.8,1-4.1,1.3-6.8l0.8-12.4h18.4v23.4h3.3
		L130.4,48.7z M111.1,37.2h10.7V18.5h-7.1l-0.5,7.4C113.8,30.8,112.8,34.6,111.1,37.2z"/>
	<path d="M147.1,35.2l5.4-14.3h7v20.8H154V29l-5,12.8h-3.7l-4.9-12.6v12.6h-5.6V21h6.9L147.1,35.2z"/>
	<path d="M177.9,21h5.6v20.8h-5.6V29l-7,12.9h-5.6V21h5.6v12.8L177.9,21z"/>
	<path d="M206,25.5h-6.7v16.3h-5.6V25.5h-6.6V21H206V25.5L206,25.5z"/>
	<path d="M228.5,31.6c0,3.2-0.7,5.8-2.2,7.7c-1.5,1.9-3.4,2.9-5.9,2.9c-2.1,0-3.8-0.7-5.1-2.2v9.8h-5.6V21h5.2l0.2,2
		c1.3-1.6,3.1-2.4,5.3-2.4c2.6,0,4.6,1,6,2.8s2.1,4.5,2.1,7.9V31.6z M223,31.2c0-1.9-0.3-3.4-1-4.5s-1.7-1.6-3-1.6
		c-1.7,0-2.9,0.7-3.6,2v8.6c0.7,1.4,1.9,2.1,3.6,2.1C221.6,37.7,223,35.5,223,31.2z"/>
	<path d="M245.5,21h5.6v20.8h-5.6V29l-7,12.9h-5.6V21h5.6v12.8L245.5,21z"/>
	<path d="M268.8,21h5.6v20.8h-5.6V29l-7,12.9h-5.6V21h5.6v12.8L268.8,21z M272.1,12.6c0,1.7-0.6,3.1-1.8,4.1s-2.8,1.6-4.8,1.6
		s-3.6-0.5-4.8-1.6c-1.2-1-1.8-2.4-1.8-4.1h3.9c0,0.8,0.2,1.4,0.7,1.9c0.5,0.4,1.1,0.7,2,0.7c0.8,0,1.5-0.2,2-0.7
		c0.5-0.4,0.7-1.1,0.7-1.9C268.1,12.6,272.1,12.6,272.1,12.6z"/>
	<path d="M299.9,30.4h-3.3v11.4h-5.8v-28h5.8V25h2.6l6.9-11.2h7L304.5,27l9.5,14.8h-6.9L299.9,30.4z"/>
	<path d="M316,31.2c0-2.1,0.4-3.9,1.2-5.5c0.8-1.6,1.9-2.9,3.4-3.8s3.2-1.3,5.2-1.3c2.8,0,5.1,0.9,6.9,2.6s2.8,4.1,3,7v1.4
		c0,3.2-0.9,5.8-2.7,7.7c-1.8,1.9-4.2,2.9-7.2,2.9s-5.4-1-7.2-2.9c-1.8-1.9-2.7-4.5-2.7-7.9L316,31.2L316,31.2z M321.6,31.6
		c0,2,0.4,3.5,1.1,4.5s1.8,1.6,3.2,1.6c1.3,0,2.4-0.5,3.2-1.6c0.8-1,1.1-2.7,1.1-5c0-1.9-0.4-3.4-1.1-4.5c-0.8-1.1-1.8-1.6-3.2-1.6
		c-1.4,0-2.4,0.5-3.2,1.6C321.9,27.7,321.6,29.4,321.6,31.6z"/>
	<path d="M340.5,41.8V21h8.7c2.8,0,5,0.5,6.5,1.5s2.3,2.4,2.3,4.3c0,1-0.3,1.8-1,2.6s-1.6,1.4-2.8,1.8c1.5,0.3,2.7,0.8,3.5,1.7
		c0.9,0.8,1.3,1.8,1.3,3c0,1.9-0.7,3.4-2.2,4.4s-3.6,1.5-6.3,1.5H340.5z M346.1,29.4h3.4c2,0,2.9-0.7,2.9-1.9c0-0.8-0.3-1.3-0.8-1.6
		c-0.5-0.3-1.3-0.5-2.4-0.5h-3.1V29.4z M346.1,33.2v4.2h4.5c2,0,2.9-0.7,2.9-2c0-1.4-0.9-2.1-2.8-2.1L346.1,33.2L346.1,33.2z"/>
	<path d="M381.5,41.8H376V25.5h-7v16.3h-5.6V21h18.1V41.8z"/>
	<path d="M398.8,41.8c-0.3-0.5-0.4-1.1-0.6-1.9c-1.3,1.5-3.1,2.3-5.3,2.3c-2,0-3.7-0.6-5.1-1.8c-1.3-1.2-2-2.7-2-4.5
		c0-2.2,0.8-3.9,2.5-5.1c1.6-1.2,4-1.8,7.1-1.8h2.6v-1.2c0-1-0.2-1.7-0.7-2.3c-0.5-0.6-1.3-0.9-2.3-0.9c-0.9,0-1.7,0.2-2.2,0.7
		c-0.5,0.4-0.8,1.1-0.8,1.8h-5.6c0-1.2,0.4-2.3,1.1-3.3s1.8-1.8,3.2-2.4c1.4-0.6,2.9-0.9,4.6-0.9c2.6,0,4.6,0.6,6.1,1.9
		s2.3,3.1,2.3,5.4v9c0,2,0.3,3.5,0.8,4.5v0.3C404.5,41.8,398.8,41.8,398.8,41.8z M394.2,37.9c0.8,0,1.6-0.2,2.3-0.5
		c0.7-0.4,1.2-0.9,1.5-1.5v-3.6h-2c-2.8,0-4.3,1-4.4,2.9v0.3c0,0.7,0.2,1.3,0.7,1.7C392.7,37.7,393.4,37.9,394.2,37.9z"/>
	<path d="M417,34.1h-2.2v7.7h-5.6V21h5.6v7.8h2l4.5-7.8h7l-6.8,9.9l7.4,10.9h-7.4L417,34.1z"/>
</g>
<path d="M35.2,49L35.2,49c-0.7-0.7-1.3-1.3-2-1.8L10.8,69.6l3.1,3.1l22.5-22.5C36,49.8,35.7,49.4,35.2,49L35.2,49z"/>
<path d="M7.1,57.3C5.3,53,4.4,48.2,4.4,43.2c0-19.9,16.2-36,36-36c2.1,0,4.2,0.2,6.3,0.6c1.6-1.1,3.3-2.2,5.2-3.3
	c-3.6-1.1-7.5-1.7-11.4-1.7C18.1,2.8,0,20.9,0,43.2c0,6.7,1.6,13.3,4.5,18.9l1.4,2.6l21.2-21.2c-1.6-0.7-3.1-1.3-4.5-1.7L7.1,57.3z"
	/>
<path d="M76.5,43.2c0,19.9-16.2,36-36,36c-4.9,0-9.8-0.9-14.1-2.7L42,60.9c-0.4-1.4-0.9-2.9-1.7-4.5L18.9,77.7l2.6,1.4
	c5.6,2.9,12.1,4.5,18.9,4.5c22.3,0,40.4-18.1,40.4-40.4c0-3.9-0.6-7.7-1.6-11.3c-1.1,1.8-2.2,3.6-3.3,5.1
	C76.3,39,76.5,41.1,76.5,43.2z"/>
<path d="M39.6,21.4c0,0-0.3,0-0.8,0c-1.8,0-6,0.2-9.4,1.7c-5.7,2.5-10.5,11-10.5,11s4,0.6,9,2.5c1.4,0.5,2.8,1.2,4.2,2
	c2,1.1,4,2.4,5.8,3.9c0.7,0.6,1.3,1.2,1.9,1.8c0.4,0.4,0.8,0.8,1.2,1.3c1.7,1.9,3,3.9,4.1,5.9c0.8,1.4,1.4,2.9,2,4.3
	c1.9,5,2.3,9,2.3,9s8.5-4.9,11-10.5c2-4.5,1.7-10.2,1.7-10.2s23.8-21.8,21.3-44C60.3-1.8,39.6,21.4,39.6,21.4z M61,28.1
	c-3.6,0-6.5-2.9-6.5-6.5s2.9-6.5,6.5-6.5s6.5,2.9,6.5,6.5S64.5,28.1,61,28.1z"/>
<g>
	<path d="M105.5,65.3c0.1,0.8,0.3,1.4,0.7,1.7s1,0.5,1.7,0.5c0.8,0,1.5-0.3,1.9-0.8c0.4-0.6,0.6-1.4,0.7-2.5h-3.9v-2.1h3.9
		c-0.1-1.1-0.3-1.9-0.7-2.5c-0.4-0.5-1-0.8-1.8-0.8s-1.4,0.2-1.7,0.6c-0.4,0.4-0.6,1-0.7,1.8H103c0.1-1.4,0.6-2.4,1.5-3.2
		s2-1.2,3.5-1.2c1,0,1.9,0.2,2.7,0.7s1.4,1.2,1.8,2.1c0.4,0.9,0.6,2,0.6,3.2v0.8c0,1.8-0.5,3.3-1.4,4.4s-2.2,1.6-3.8,1.6
		c-1.5,0-2.6-0.4-3.5-1.2c-0.9-0.8-1.4-1.8-1.5-3.1C102.9,65.3,105.5,65.3,105.5,65.3z"/>
	<path d="M118.3,66h-1v3.4h-2.5v-9.2h2.5v3.5h0.9l2-3.5h3.1l-3,4.4l3.3,4.8h-3.3L118.3,66z"/>
	<path d="M128.2,67.6c0.5,0,0.8-0.1,1.1-0.4s0.4-0.6,0.4-1h2.3c0,0.6-0.2,1.2-0.5,1.7s-0.8,0.9-1.4,1.2c-0.6,0.3-1.2,0.4-1.9,0.4
		c-1.3,0-2.4-0.4-3.1-1.3c-0.8-0.8-1.1-2-1.1-3.5v-0.2c0-1.4,0.4-2.6,1.1-3.4c0.8-0.8,1.8-1.3,3.1-1.3c1.2,0,2.1,0.3,2.8,1
		s1.1,1.5,1.1,2.6h-2.3c0-0.5-0.2-0.9-0.4-1.2c-0.3-0.3-0.7-0.4-1.1-0.4c-0.6,0-1,0.2-1.3,0.6c-0.3,0.4-0.4,1.1-0.4,2v0.3
		c0,1,0.1,1.6,0.4,2C127.2,67.4,127.6,67.6,128.2,67.6z"/>
	<path d="M141.5,69.4H139v-7.2h-3v7.2h-2.5v-9.2h8V69.4z"/>
	<path d="M147.6,69.6c-1.4,0-2.5-0.4-3.3-1.2c-0.8-0.8-1.3-1.9-1.3-3.3v-0.2c0-0.9,0.2-1.8,0.5-2.5c0.4-0.7,0.9-1.3,1.5-1.7
		c0.7-0.4,1.4-0.6,2.2-0.6c1.3,0,2.3,0.4,3,1.2s1.1,1.9,1.1,3.4v1h-5.9c0.1,0.6,0.3,1.1,0.7,1.4c0.4,0.4,0.9,0.5,1.5,0.5
		c0.9,0,1.7-0.3,2.2-1L151,68c-0.4,0.5-0.9,0.9-1.5,1.2S148.4,69.6,147.6,69.6z M147.4,62c-0.5,0-0.9,0.2-1.2,0.5s-0.5,0.8-0.6,1.4
		h3.4v-0.2c0-0.5-0.2-1-0.4-1.3S147.9,62,147.4,62z"/>
	<path d="M161.1,64.9c0,1.4-0.3,2.6-1,3.4c-0.6,0.9-1.5,1.3-2.6,1.3c-0.9,0-1.7-0.3-2.3-1V73h-2.5V60.2h2.3l0.1,0.9
		c0.6-0.7,1.4-1.1,2.3-1.1c1.1,0,2,0.4,2.7,1.3c0.6,0.8,0.9,2,0.9,3.5v0.1H161.1z M158.7,64.7c0-0.9-0.2-1.5-0.5-2s-0.7-0.7-1.3-0.7
		c-0.8,0-1.3,0.3-1.6,0.9v3.8c0.3,0.6,0.8,0.9,1.6,0.9C158.1,67.6,158.7,66.6,158.7,64.7z"/>
	<path d="M170,62.2h-3v7.2h-2.5v-7.2h-2.9v-2h8.3L170,62.2L170,62.2z"/>
	<path d="M183.6,69.4h-2.5v-7.2H178v7.2h-2.5v-9.2h8v9.2H183.6z"/>
	<path d="M185.1,64.7c0-0.9,0.2-1.7,0.5-2.4c0.4-0.7,0.9-1.3,1.5-1.7c0.7-0.4,1.4-0.6,2.3-0.6c1.2,0,2.3,0.4,3,1.1
		c0.8,0.8,1.2,1.8,1.3,3.1v0.6c0,1.4-0.4,2.6-1.2,3.4c-0.8,0.9-1.9,1.3-3.2,1.3s-2.4-0.4-3.2-1.3s-1.2-2-1.2-3.5l0,0H185.1z
		 M187.5,64.9c0,0.9,0.2,1.5,0.5,2s0.8,0.7,1.4,0.7c0.6,0,1.1-0.2,1.4-0.7s0.5-1.2,0.5-2.2c0-0.9-0.2-1.5-0.5-2S190,62,189.4,62
		s-1.1,0.2-1.4,0.7C187.7,63.2,187.5,63.9,187.5,64.9z"/>
	<path d="M204.3,60.7c1.2,0,2.1,0.4,2.8,1.2s1.1,1.9,1.1,3.2v0.1c0,1.3-0.4,2.4-1.2,3.2c-0.8,0.8-1.8,1.2-3.2,1.2
		c-1.3,0-2.4-0.4-3.2-1.3s-1.2-2-1.2-3.5v-0.4c0-2.1,0.4-3.7,1.1-4.9c0.7-1.2,1.7-1.9,3.1-2.2c0.7-0.2,1.2-0.3,1.4-0.5
		s0.3-0.4,0.3-0.7h2c0,0.9-0.2,1.6-0.7,2s-1.3,0.8-2.6,1c-0.7,0.1-1.3,0.4-1.7,0.9c-0.4,0.4-0.7,1-0.9,1.8
		C202.3,61.1,203.2,60.7,204.3,60.7z M203.8,62.7c-0.6,0-1,0.2-1.4,0.6s-0.5,1-0.5,1.9c0,0.8,0.2,1.4,0.5,1.8s0.8,0.6,1.4,0.6
		c0.6,0,1.1-0.2,1.4-0.6c0.3-0.4,0.5-1,0.5-1.8V65c0-0.8-0.2-1.3-0.5-1.7C204.9,62.9,204.4,62.7,203.8,62.7z"/>
	<path d="M215,60.2h2.5v9.2H215v-5.7l-3.1,5.7h-2.5v-9.2h2.5v5.7L215,60.2z"/>
	<path d="M224.2,62.9c0-0.3-0.1-0.6-0.3-0.8s-0.5-0.3-0.9-0.3s-0.7,0.1-1,0.3s-0.4,0.4-0.4,0.7h-2.5c0-0.8,0.3-1.5,1-2
		s1.6-0.8,2.7-0.8c1.2,0,2.1,0.2,2.8,0.7s1,1.1,1,2c0,0.4-0.1,0.8-0.4,1.1c-0.2,0.3-0.6,0.6-1,0.8c1.1,0.4,1.6,1.1,1.6,2.1
		c0,0.8-0.4,1.5-1.1,2s-1.7,0.8-2.9,0.8c-1.1,0-2-0.3-2.8-0.8c-0.7-0.5-1.1-1.2-1.1-2.1h2.5c0,0.3,0.1,0.6,0.4,0.8
		c0.3,0.2,0.6,0.3,1.1,0.3c0.4,0,0.8-0.1,1-0.3c0.2-0.2,0.4-0.5,0.4-0.8c0-0.4-0.1-0.7-0.3-0.9c-0.2-0.2-0.6-0.3-1-0.3h-1.3v-1.6
		h1.4C223.9,63.9,224.2,63.6,224.2,62.9z"/>
	<path d="M236.4,69.4h-2.5v-3.5h-3.1v3.5h-2.5v-9.2h2.5v3.7h3.1v-3.7h2.5V69.4z"/>
	<path d="M242.5,69.6c-1.4,0-2.5-0.4-3.3-1.2s-1.3-1.9-1.3-3.3v-0.2c0-0.9,0.2-1.8,0.5-2.5c0.4-0.7,0.9-1.3,1.5-1.7
		c0.7-0.4,1.4-0.6,2.2-0.6c1.3,0,2.3,0.4,3,1.2s1.1,1.9,1.1,3.4v1h-5.9c0.1,0.6,0.3,1.1,0.7,1.4c0.4,0.4,0.9,0.5,1.5,0.5
		c0.9,0,1.7-0.3,2.2-1l1.2,1.4c-0.4,0.5-0.9,0.9-1.5,1.2S243.3,69.6,242.5,69.6z M242.2,62c-0.5,0-0.9,0.2-1.2,0.5s-0.5,0.8-0.6,1.4
		h3.4v-0.2c0-0.5-0.2-1-0.4-1.3S242.8,62,242.2,62z"/>
	<path d="M251.5,67.6c0.5,0,0.8-0.1,1.1-0.4s0.4-0.6,0.4-1h2.3c0,0.6-0.2,1.2-0.5,1.7s-0.8,0.9-1.4,1.2c-0.6,0.3-1.2,0.4-1.9,0.4
		c-1.3,0-2.4-0.4-3.1-1.3c-0.8-0.8-1.1-2-1.1-3.5v-0.2c0-1.4,0.4-2.6,1.1-3.4c0.8-0.8,1.8-1.3,3.1-1.3c1.2,0,2.1,0.3,2.8,1
		s1.1,1.5,1.1,2.6h-2.3c0-0.5-0.2-0.9-0.4-1.2c-0.3-0.3-0.7-0.4-1.1-0.4c-0.6,0-1,0.2-1.3,0.6c-0.3,0.4-0.4,1.1-0.4,2v0.3
		c0,1,0.1,1.6,0.4,2C250.5,67.4,251,67.6,251.5,67.6z"/>
	<path d="M260.3,65.9l1.7-5.7h2.6l-3.7,10.7l-0.2,0.5c-0.6,1.2-1.5,1.8-2.7,1.8c-0.4,0-0.7-0.1-1.1-0.2v-1.9h0.4
		c0.5,0,0.8-0.1,1-0.2s0.4-0.4,0.5-0.7l0.3-0.8l-3.2-9.3h2.7L260.3,65.9z"/>
	<path d="M273.8,67.6c0.5,0,0.8-0.1,1.1-0.4s0.4-0.6,0.4-1h2.3c0,0.6-0.2,1.2-0.5,1.7s-0.8,0.9-1.4,1.2s-1.2,0.4-1.9,0.4
		c-1.3,0-2.4-0.4-3.1-1.3c-0.8-0.8-1.1-2-1.1-3.5v-0.2c0-1.4,0.4-2.6,1.1-3.4c0.8-0.8,1.8-1.3,3.1-1.3c1.2,0,2.1,0.3,2.8,1
		c0.7,0.7,1.1,1.5,1.1,2.6h-2.3c0-0.5-0.2-0.9-0.4-1.2c-0.3-0.3-0.7-0.4-1.1-0.4c-0.6,0-1,0.2-1.3,0.6c-0.3,0.4-0.4,1.1-0.4,2v0.3
		c0,1,0.1,1.6,0.4,2C272.7,67.4,273.2,67.6,273.8,67.6z"/>
	<path d="M287.6,64.4h-1.5v5.1h-2.6V57h2.6v5h1.2l3-5h3.1l-3.8,5.9l4.2,6.5h-3.1L287.6,64.4z"/>
	<path d="M300.2,60.2h2.5v9.2h-2.5v-5.7l-3.1,5.7h-2.5v-9.2h2.5v5.7L300.2,60.2z"/>
	<path d="M312.2,62.2h-3v7.2h-2.5v-7.2h-2.9v-2h8.3v2H312.2z"/>
	<path d="M318.7,69.4c-0.1-0.2-0.2-0.5-0.2-0.8c-0.6,0.7-1.4,1-2.3,1s-1.7-0.3-2.2-0.8c-0.6-0.5-0.9-1.2-0.9-2c0-1,0.4-1.7,1.1-2.3
		c0.7-0.5,1.8-0.8,3.1-0.8h1.1v-0.5c0-0.4-0.1-0.8-0.3-1s-0.6-0.4-1-0.4s-0.7,0.1-1,0.3c-0.2,0.2-0.4,0.5-0.4,0.8h-2.5
		c0-0.5,0.2-1,0.5-1.5s0.8-0.8,1.4-1.1s1.3-0.4,2-0.4c1.1,0,2,0.3,2.7,0.9c0.7,0.6,1,1.4,1,2.4v4c0,0.9,0.1,1.5,0.4,2v0.1h-2.5V69.4
		z M316.6,67.7c0.4,0,0.7-0.1,1-0.2c0.3-0.2,0.5-0.4,0.7-0.7v-1.6h-0.9c-1.2,0-1.9,0.4-2,1.3v0.1c0,0.3,0.1,0.6,0.3,0.8
		C316,67.6,316.3,67.7,316.6,67.7z"/>
	<path d="M326.9,69.6c-1.4,0-2.5-0.4-3.3-1.2s-1.3-1.9-1.3-3.3v-0.2c0-0.9,0.2-1.8,0.5-2.5s0.9-1.3,1.5-1.7c0.7-0.4,1.4-0.6,2.2-0.6
		c1.3,0,2.3,0.4,3,1.2s1.1,1.9,1.1,3.4v1h-5.9c0.1,0.6,0.3,1.1,0.7,1.4c0.4,0.4,0.9,0.5,1.5,0.5c0.9,0,1.7-0.3,2.2-1l1.2,1.4
		c-0.4,0.5-0.9,0.9-1.5,1.2S327.7,69.6,326.9,69.6z M326.7,62c-0.5,0-0.9,0.2-1.2,0.5c-0.3,0.3-0.5,0.8-0.6,1.4h3.4v-0.2
		c0-0.5-0.2-1-0.4-1.3S327.2,62,326.7,62z"/>
	<path d="M337.8,66.5l2.4-6.3h3.1v9.2h-2.5v-5.7l-2.2,5.7h-1.7l-2.2-5.6v5.6h-2.5v-9.2h3.1L337.8,66.5z"/>
	<path d="M358.7,69.4H356l-3.6-8.1v8.1h-2.5V57h2.7l3.6,8.1V57h2.5V69.4z M359.7,59.9c0-0.9,0.3-1.6,0.8-2.2
		c0.5-0.6,1.3-0.9,2.1-0.9c0.9,0,1.6,0.3,2.1,0.8c0.5,0.6,0.8,1.3,0.8,2.3v0.5c0,0.9-0.3,1.6-0.8,2.2c-0.5,0.6-1.2,0.9-2.1,0.9
		s-1.6-0.3-2.2-0.9s-0.8-1.3-0.8-2.2v-0.5H359.7z M365.2,65.9h-5.1v-1.3h5.1V65.9z M361.2,60.5c0,0.6,0.1,1,0.4,1.3s0.6,0.5,1.1,0.5
		c0.4,0,0.8-0.2,1.1-0.5s0.4-0.8,0.4-1.4v-0.5c0-0.6-0.1-1-0.4-1.3s-0.6-0.5-1.1-0.5c-0.4,0-0.8,0.2-1.1,0.5
		c-0.3,0.3-0.4,0.8-0.4,1.4V60.5z"/>
	<path d="M373.3,69.4h-2.5v-9.5l-2.9,0.9v-2L373,57h0.3V69.4z"/>
</g>
</svg>
