<svg xmlns="http://www.w3.org/2000/svg" xmlns:xlink="http://www.w3.org/1999/xlink" preserveAspectRatio="xMidYMid" width="32" height="32" viewBox="0 0 32 32">
  <defs>
    <style>
      .cls-1 {
        fill: #fff;
        fill-rule: evenodd;
      }
    </style>
  </defs>
  <path d="M29.500,4.999 C28.122,4.999 27.000,3.878 27.000,2.499 C27.000,1.121 28.122,-0.000 29.500,-0.000 C30.878,-0.000 32.000,1.121 32.000,2.499 C32.000,3.878 30.878,4.999 29.500,4.999 ZM29.500,1.000 C28.671,1.000 28.000,1.670 28.000,2.499 C28.000,3.327 28.671,3.999 29.500,3.999 C30.329,3.999 31.000,3.327 31.000,2.499 C31.000,1.670 30.329,1.000 29.500,1.000 ZM29.140,13.226 C29.140,13.897 28.877,14.525 28.401,14.999 L26.993,16.406 C26.522,16.880 25.894,17.139 25.226,17.139 C24.732,17.139 24.261,16.998 23.857,16.733 L18.516,30.108 C18.147,31.044 17.332,31.730 16.339,31.937 C16.135,31.979 15.931,31.999 15.728,31.999 C15.711,31.999 15.669,31.999 15.652,31.998 C14.883,31.981 14.155,31.669 13.607,31.121 L0.887,18.541 C0.177,17.834 -0.132,16.831 0.052,15.855 C0.235,14.882 0.887,14.065 1.794,13.665 L15.371,8.226 C15.129,7.835 15.000,7.384 15.000,6.914 C15.000,6.245 15.261,5.616 15.734,5.145 L17.145,3.733 C17.619,3.259 18.246,2.999 18.914,2.999 C19.581,2.999 20.209,3.259 20.681,3.732 L28.407,11.458 C28.877,11.926 29.140,12.555 29.140,13.226 ZM2.599,15.497 C2.297,15.629 2.079,15.903 2.018,16.227 C1.956,16.551 2.059,16.885 2.293,17.120 L15.021,29.707 C15.205,29.891 15.449,29.993 15.703,29.999 C15.779,30.001 15.856,29.994 15.932,29.978 C16.261,29.910 16.535,29.680 16.658,29.366 L21.386,17.528 C17.196,13.057 13.006,14.398 8.816,13.005 L2.599,15.497 ZM26.992,12.872 L19.268,5.146 C19.072,4.950 18.756,4.950 18.560,5.146 L17.147,6.561 C16.951,6.756 16.951,7.072 17.146,7.268 L18.862,8.982 L10.370,12.384 C11.216,12.567 12.075,12.680 12.962,12.789 C15.722,13.128 18.782,13.506 21.792,16.512 L21.671,16.815 L23.104,13.226 L24.872,14.993 C25.067,15.189 25.383,15.189 25.579,14.993 L26.992,13.579 C27.189,13.384 27.189,13.068 26.992,12.872 ZM16.500,20.999 C15.122,20.999 14.000,19.879 14.000,18.500 C14.000,17.121 15.122,16.000 16.500,16.000 C17.878,16.000 19.000,17.121 19.000,18.500 C19.000,19.879 17.878,20.999 16.500,20.999 ZM16.500,16.999 C15.671,16.999 15.000,17.671 15.000,18.500 C15.000,19.328 15.671,19.999 16.500,19.999 C17.329,19.999 18.000,19.328 18.000,18.500 C18.000,17.671 17.329,16.999 16.500,16.999 ZM13.000,23.999 C12.448,23.999 12.000,23.552 12.000,23.000 C12.000,22.446 12.448,22.000 13.000,22.000 C13.552,22.000 14.000,22.446 14.000,23.000 C14.000,23.552 13.552,23.999 13.000,23.999 ZM10.000,18.999 C8.897,18.999 8.000,18.102 8.000,16.999 C8.000,15.896 8.897,14.999 10.000,14.999 C11.103,14.999 12.000,15.896 12.000,16.999 C12.000,18.102 11.103,18.999 10.000,18.999 ZM10.000,16.000 C9.448,16.000 9.000,16.447 9.000,16.999 C9.000,17.551 9.448,17.999 10.000,17.999 C10.552,17.999 11.000,17.551 11.000,16.999 C11.000,16.447 10.552,16.000 10.000,16.000 ZM28.000,7.999 C28.000,7.447 28.448,6.999 29.000,6.999 C29.552,6.999 30.000,7.447 30.000,7.999 C30.000,8.552 29.552,8.999 29.000,8.999 C28.448,8.999 28.000,8.552 28.000,7.999 Z" class="cls-1"/>
</svg>
