<svg xmlns="http://www.w3.org/2000/svg" xmlns:xlink="http://www.w3.org/1999/xlink" preserveAspectRatio="xMidYMid" width="16" height="10.5" viewBox="0 0 16 10.5">
  <defs>
    <style>
      .cls-1 {
        fill: gray;
        fill-rule: evenodd;
      }
    </style>
  </defs>
  <path d="M14.000,-0.054 L2.000,-0.054 C0.895,-0.054 -0.000,0.842 -0.000,1.947 L-0.000,8.446 C-0.000,9.551 0.895,10.447 2.000,10.447 L14.000,10.447 C15.104,10.447 16.000,9.551 16.000,8.446 L16.000,1.947 C16.000,0.842 15.104,-0.054 14.000,-0.054 ZM1.000,2.571 L4.499,5.197 L1.000,7.821 L1.000,2.571 ZM15.000,8.446 C15.000,8.999 14.551,9.447 14.000,9.447 L2.000,9.447 C1.449,9.447 1.000,8.999 1.000,8.446 L4.916,5.509 L7.100,7.147 C7.367,7.347 7.683,7.448 8.000,7.448 C8.317,7.448 8.633,7.347 8.900,7.147 L11.084,5.509 L15.000,8.446 L15.000,8.446 ZM15.000,7.821 L11.500,5.197 L15.000,2.571 L15.000,7.821 ZM8.600,6.747 C8.425,6.878 8.218,6.947 8.000,6.947 C7.782,6.947 7.575,6.878 7.400,6.747 L5.332,5.197 L4.916,4.884 L1.000,1.948 L1.000,1.947 C1.000,1.394 1.449,0.946 2.000,0.946 L14.000,0.946 C14.551,0.946 15.000,1.394 15.000,1.947 L8.600,6.747 Z" class="cls-1"/>
</svg>
