<svg xmlns="http://www.w3.org/2000/svg" xmlns:xlink="http://www.w3.org/1999/xlink" preserveAspectRatio="xMidYMid" width="17.938" height="18" viewBox="0 0 17.938 18">
  <defs>
    <style>
      .cls-1 {
        fill: gray;
        fill-rule: evenodd;
      }
    </style>
  </defs>
  <path d="M16.470,1.481 C15.549,0.561 14.336,0.037 13.140,0.037 C12.132,0.037 11.203,0.410 10.526,1.087 L7.800,3.833 C7.792,3.841 7.782,3.846 7.774,3.855 C7.770,3.860 7.767,3.865 7.762,3.869 L7.764,3.871 L1.979,9.699 C1.712,9.964 1.519,10.294 1.412,10.655 L0.096,15.418 C0.095,15.432 0.009,15.807 0.009,15.997 C0.009,17.079 0.888,17.957 1.972,17.957 C2.187,17.957 2.604,17.853 2.620,17.852 L7.367,16.604 C7.727,16.496 8.056,16.302 8.322,16.034 L16.869,7.421 C18.424,5.863 18.249,3.256 16.470,1.481 ZM8.977,13.362 C8.931,12.856 8.788,12.361 8.575,11.891 L13.869,6.597 C14.193,7.621 14.027,8.690 13.317,9.398 C13.313,9.403 13.307,9.406 13.303,9.410 L13.310,9.418 L8.982,13.780 C8.983,13.640 8.990,13.504 8.977,13.362 ZM8.293,11.380 C8.085,11.037 7.847,10.706 7.553,10.413 C7.211,10.069 6.818,9.802 6.408,9.576 L11.746,4.239 C12.165,4.425 12.567,4.690 12.921,5.044 C13.223,5.344 13.458,5.683 13.638,6.035 L8.293,11.380 ZM5.881,9.312 C5.363,9.101 4.819,8.984 4.275,8.976 L8.589,4.630 C9.249,3.985 10.211,3.799 11.158,4.035 L5.881,9.312 ZM2.343,16.765 C2.282,16.778 2.092,16.828 1.963,16.836 C1.502,16.832 1.129,16.457 1.129,15.997 C1.135,15.904 1.173,15.743 1.186,15.682 L1.775,13.547 C2.415,13.528 3.104,13.777 3.646,14.320 C4.196,14.869 4.454,15.571 4.426,16.219 L2.343,16.765 ZM4.978,16.074 C4.965,15.322 4.659,14.539 4.042,13.925 C3.459,13.339 2.695,13.003 1.933,12.974 L2.491,10.953 C2.532,10.818 2.611,10.687 2.710,10.569 C3.833,9.765 5.561,10.003 6.761,11.204 C8.030,12.473 8.227,14.332 7.249,15.441 C7.184,15.475 7.118,15.507 7.048,15.528 L4.978,16.074 ZM16.077,6.628 L15.133,7.579 C15.133,7.453 15.148,7.331 15.137,7.202 C15.039,6.118 14.533,5.071 13.713,4.252 C12.801,3.339 11.591,2.815 10.393,2.811 L11.321,1.878 C11.784,1.413 12.432,1.156 13.140,1.156 C14.042,1.156 14.967,1.564 15.679,2.274 C16.347,2.941 16.746,3.769 16.802,4.607 C16.855,5.390 16.597,6.108 16.077,6.628 Z" class="cls-1"/>
</svg>
