<svg xmlns="http://www.w3.org/2000/svg" xmlns:xlink="http://www.w3.org/1999/xlink" preserveAspectRatio="xMidYMid" width="39.06" height="31.88" viewBox="0 0 39.06 31.88">
  <defs>
    <style>
      .cls-1 {
        fill: #fff;
        fill-rule: evenodd;
      }
    </style>
  </defs>
  <path d="M36.361,31.888 L2.697,31.888 C1.210,31.888 0.004,30.698 0.004,29.230 L0.004,7.963 C0.004,6.496 1.210,5.305 2.697,5.305 L10.861,5.305 C10.861,5.305 10.777,5.146 10.777,3.311 C10.777,1.476 12.284,-0.012 14.144,-0.012 L24.916,-0.012 C26.775,-0.012 28.282,1.476 28.282,3.311 C28.282,5.146 28.367,5.305 28.367,5.305 L36.361,5.305 C37.848,5.305 39.054,6.496 39.054,7.963 L39.054,29.230 C39.054,30.698 37.848,31.888 36.361,31.888 ZM19.590,26.536 C24.052,26.536 27.669,22.966 27.669,18.561 C27.669,14.156 24.052,10.586 19.590,10.586 C15.128,10.586 11.511,14.156 11.511,18.561 C11.511,22.966 15.128,26.536 19.590,26.536 Z" class="cls-1"/>
</svg>
