<svg xmlns="http://www.w3.org/2000/svg" xmlns:xlink="http://www.w3.org/1999/xlink" preserveAspectRatio="xMidYMid" width="56" height="62" viewBox="0 0 56 62">
  <defs>
    <style>
      .cls-1 {
        fill: #fff;
        fill-rule: evenodd;
      }
    </style>
  </defs>
  <path d="M42.297,41.737 C50.964,43.020 52.744,45.841 54.378,47.411 C56.012,48.980 55.965,56.146 55.965,56.146 L31.389,56.181 L33.758,50.376 L30.459,36.638 C30.459,39.143 29.171,38.740 29.171,38.740 L27.080,38.740 C25.444,38.740 25.540,37.473 25.608,37.083 L25.631,36.961 C25.631,36.961 25.620,37.011 25.608,37.083 L23.057,50.376 L25.308,56.190 L-0.012,56.228 C-0.012,56.228 0.428,48.980 2.062,47.411 C3.696,45.841 5.355,43.020 14.022,41.737 C22.690,40.453 22.060,35.872 22.344,36.014 C22.291,34.276 22.123,31.839 22.123,31.839 C22.123,31.839 18.581,29.920 17.252,26.117 C14.462,24.992 14.830,24.268 14.559,22.814 C14.559,22.814 13.712,16.916 15.596,17.039 C15.596,17.039 16.886,17.039 16.586,15.685 C16.486,13.429 16.282,9.525 16.432,8.019 C16.582,6.517 17.290,2.455 20.435,1.854 C23.580,1.253 22.319,1.553 23.367,1.403 C24.416,1.253 24.116,0.650 26.063,0.650 L30.106,-0.001 C32.053,-0.001 33.301,2.889 34.349,3.039 C35.398,3.188 35.406,2.579 37.552,2.981 C40.697,3.583 40.260,7.720 40.410,9.224 C40.560,10.727 40.660,14.632 40.360,15.986 C40.061,17.340 40.996,17.189 40.996,17.189 C43.243,17.189 42.135,22.964 42.135,22.964 C41.789,24.494 41.636,24.677 39.545,26.005 C38.216,29.807 34.620,32.140 34.620,32.140 C34.620,32.140 34.639,35.042 34.623,35.726 C34.683,35.996 34.193,40.534 42.297,41.737 ZM29.011,62.012 L27.562,62.012 L25.308,56.190 L31.389,56.181 L29.011,62.012 Z" class="cls-1"/>
</svg>
