<svg xmlns="http://www.w3.org/2000/svg" xmlns:xlink="http://www.w3.org/1999/xlink" preserveAspectRatio="xMidYMid" width="27.188" height="26.38" viewBox="0 0 27.188 26.38">
  <defs>
    <style>
      .cls-1 {
        fill: #0d0d0d;
        fill-rule: evenodd;
      }
    </style>
  </defs>
  <path d="M27.092,9.837 C26.858,9.158 26.253,8.662 25.526,8.553 L18.449,7.501 L15.372,1.114 C15.049,0.443 14.356,0.014 13.594,0.014 C12.833,0.014 12.140,0.443 11.816,1.114 L8.739,7.501 L1.661,8.553 C0.934,8.662 0.330,9.158 0.096,9.837 C-0.138,10.518 0.039,11.268 0.552,11.780 L5.739,16.959 L4.536,24.142 C4.414,24.865 4.728,25.591 5.342,26.015 C5.680,26.246 6.077,26.364 6.473,26.364 C6.800,26.364 7.127,26.284 7.424,26.126 L13.594,22.804 L19.765,26.126 C20.062,26.284 20.389,26.364 20.714,26.364 C21.112,26.364 21.508,26.246 21.846,26.015 C22.461,25.591 22.774,24.865 22.652,24.142 L21.449,16.959 L26.636,11.780 C27.150,11.268 27.326,10.518 27.092,9.837 ZM20.043,15.623 C19.609,16.058 19.411,16.667 19.511,17.266 L20.714,24.451 L14.544,21.130 C14.248,20.971 13.921,20.890 13.594,20.890 C13.267,20.890 12.940,20.971 12.644,21.130 L6.473,24.451 L7.677,17.266 C7.777,16.667 7.580,16.058 7.145,15.623 L1.958,10.444 L9.036,9.391 C9.682,9.294 10.239,8.890 10.517,8.313 L13.594,1.928 L16.671,8.313 C16.949,8.890 17.505,9.294 18.152,9.391 L25.230,10.444 L20.043,15.623 Z" class="cls-1"/>
</svg>
