<svg xmlns="http://www.w3.org/2000/svg" xmlns:xlink="http://www.w3.org/1999/xlink" preserveAspectRatio="xMidYMid" width="16.625" height="16.6" viewBox="0 0 16.625 16.6">
  <defs>
    <style>
      .cls-1 {
        fill: #f39c12;
        fill-rule: evenodd;
      }
    </style>
  </defs>
  <path d="M16.169,14.711 C16.065,14.642 14.168,13.397 11.347,12.788 C12.382,11.476 13.046,9.712 13.329,8.540 C13.720,6.913 13.568,3.731 12.006,1.748 C11.093,0.590 9.816,-0.023 8.312,-0.023 C6.808,-0.023 5.531,0.590 4.618,1.748 C3.055,3.731 2.904,6.913 3.295,8.540 C3.578,9.712 4.242,11.476 5.277,12.788 C2.456,13.397 0.559,14.642 0.455,14.711 C0.074,14.965 -0.096,15.440 0.037,15.877 C0.169,16.316 0.574,16.616 1.032,16.616 L15.592,16.616 C16.050,16.616 16.455,16.316 16.587,15.877 C16.720,15.440 16.550,14.965 16.169,14.711 ZM10.530,12.143 L10.360,12.359 C9.120,13.784 7.503,13.784 6.263,12.359 L6.093,12.143 C4.645,10.308 3.926,7.882 4.236,5.566 C4.520,3.341 5.795,1.016 8.312,1.016 C10.829,1.016 12.104,3.341 12.388,5.566 C12.696,7.882 11.980,10.307 10.530,12.143 ZM1.032,15.578 C1.103,15.529 2.866,14.373 5.497,13.806 L6.788,13.524 C7.249,13.827 7.755,14.016 8.312,14.016 C8.868,14.016 9.375,13.827 9.835,13.524 L11.127,13.806 C13.738,14.368 15.493,15.512 15.592,15.578 L1.032,15.578 Z" class="cls-1"/>
</svg>
