<svg xmlns="http://www.w3.org/2000/svg" xmlns:xlink="http://www.w3.org/1999/xlink" preserveAspectRatio="xMidYMid" width="27.88" height="27.88" viewBox="0 0 27.88 27.88">
  <defs>
    <style>
      .cls-1 {
        fill: #0d0d0d;
        fill-rule: evenodd;
      }
    </style>
  </defs>
  <path d="M13.940,-0.011 C6.236,-0.011 -0.010,6.235 -0.010,13.939 C-0.010,21.644 6.236,27.889 13.940,27.889 C21.644,27.889 27.890,21.644 27.890,13.939 C27.890,6.235 21.644,-0.011 13.940,-0.011 ZM26.067,13.489 L20.671,13.489 C20.621,11.496 20.267,9.591 19.638,7.848 C20.852,7.341 21.975,6.667 23.000,5.871 C24.821,7.914 25.960,10.568 26.067,13.489 ZM13.443,26.064 C11.947,24.818 10.692,23.201 9.774,21.323 C10.952,20.955 12.201,20.753 13.490,20.713 L13.490,26.066 C13.474,26.065 13.458,26.065 13.443,26.064 ZM14.437,1.815 C16.134,3.228 17.519,5.121 18.456,7.328 C17.174,7.767 15.809,8.021 14.390,8.067 L14.390,1.812 C14.406,1.813 14.421,1.814 14.437,1.815 ZM15.935,1.968 C18.419,2.381 20.649,3.541 22.383,5.221 C21.441,5.942 20.410,6.555 19.299,7.019 C18.479,5.077 17.330,3.361 15.935,1.968 ZM13.490,1.812 L13.490,8.067 C12.071,8.021 10.706,7.767 9.424,7.328 C10.361,5.121 11.746,3.228 13.443,1.815 C13.459,1.814 13.474,1.813 13.490,1.812 ZM8.581,7.019 C7.469,6.555 6.439,5.942 5.497,5.221 C7.231,3.541 9.461,2.381 11.945,1.968 C10.550,3.361 9.401,5.077 8.581,7.019 ZM9.085,8.157 C10.473,8.640 11.951,8.919 13.490,8.966 L13.490,13.489 L8.109,13.489 C8.158,11.605 8.492,9.804 9.085,8.157 ZM13.490,14.390 L13.490,19.812 C12.071,19.855 10.699,20.088 9.405,20.504 C8.625,18.649 8.166,16.581 8.109,14.390 L13.490,14.390 ZM11.945,25.911 C9.719,25.541 7.698,24.571 6.054,23.164 C6.941,22.550 7.899,22.030 8.923,21.633 C9.708,23.261 10.736,24.706 11.945,25.911 ZM14.390,26.066 L14.390,20.713 C15.679,20.753 16.928,20.955 18.106,21.323 C17.187,23.201 15.933,24.818 14.437,26.064 C14.422,26.065 14.406,26.065 14.390,26.066 ZM18.957,21.633 C19.981,22.030 20.939,22.550 21.826,23.164 C20.182,24.571 18.161,25.541 15.935,25.911 C17.144,24.706 18.172,23.261 18.957,21.633 ZM18.475,20.504 C17.181,20.088 15.809,19.855 14.390,19.812 L14.390,14.390 L19.771,14.390 C19.714,16.581 19.255,18.649 18.475,20.504 ZM14.390,13.489 L14.390,8.966 C15.929,8.919 17.407,8.640 18.795,8.157 C19.388,9.804 19.722,11.605 19.771,13.489 L14.390,13.489 ZM4.880,5.871 C5.905,6.667 7.028,7.341 8.242,7.848 C7.613,9.591 7.258,11.496 7.209,13.489 L1.813,13.489 C1.920,10.568 3.059,7.914 4.880,5.871 ZM1.813,14.390 L7.209,14.390 C7.266,16.689 7.745,18.860 8.562,20.813 C7.422,21.257 6.359,21.850 5.378,22.550 C3.264,20.447 1.931,17.572 1.813,14.390 ZM22.502,22.550 C21.521,21.850 20.458,21.257 19.318,20.813 C20.135,18.860 20.614,16.689 20.671,14.390 L26.067,14.390 C25.949,17.572 24.616,20.447 22.502,22.550 Z" class="cls-1"/>
</svg>
